<?xml version="1.0" encoding="utf-8"?>
<!-- Generator: Adobe Illustrator 27.3.1, SVG Export Plug-In . SVG Version: 6.00 Build 0)  -->
<svg version="1.1" id="Layer_1" xmlns="http://www.w3.org/2000/svg" xmlns:xlink="http://www.w3.org/1999/xlink" x="0px" y="0px"
	 width="85.039px" height="85.039px" viewBox="0 0 85.039 85.039" style="enable-background:new 0 0 85.039 85.039;"
	 xml:space="preserve">
<style type="text/css">
	.st0{fill:#231F20;}
	.st1{fill:#1A9FFF;}
</style>
<g>
	<g>
		<path class="st0" d="M32.067,78.307V65.46c12.65,0,22.941-10.291,22.941-22.941S44.717,19.579,32.067,19.579V6.732
			c19.733,0,35.788,16.054,35.788,35.788C67.854,62.253,51.8,78.307,32.067,78.307z"/>
		<circle class="st1" cx="32.067" cy="42.556" r="17.894"/>
	</g>
	<path class="st0" d="M65.307,18.11h-0.982v-0.584h2.645v0.584h-0.982v2.659h-0.681V18.11z"/>
	<path class="st0" d="M70.866,17.526v3.243h-0.653v-2.061l-0.871,1.969H68.93l-0.89-1.946v2.038h-0.621v-3.243h0.653l1.094,2.302
		l1.01-2.302H70.866z"/>
</g>
</svg>
