<?xml version="1.0" encoding="utf-8"?>
<!-- Generator: Adobe Illustrator 27.3.1, SVG Export Plug-In . SVG Version: 6.00 Build 0)  -->
<svg version="1.1" id="Layer_1" xmlns="http://www.w3.org/2000/svg" xmlns:xlink="http://www.w3.org/1999/xlink" x="0px" y="0px"
	 width="283.5px" height="121.5px" viewBox="0 0 283.5 121.5" style="enable-background:new 0 0 283.5 121.5;" xml:space="preserve"
	>
<style type="text/css">
	.st0{fill:none;stroke:#2F559A;stroke-width:0.25;stroke-miterlimit:10.0001;}
	.st1{fill:#231F20;stroke:#231F20;stroke-width:1;stroke-miterlimit:10.0001;}
	.st2{fill:none;stroke:#2F559A;stroke-width:0.25;stroke-miterlimit:10;}
	.st3{fill:#FFFFFF;}
	.st4{fill:#1A9FFF;}
	.st5{font-family:'MotivaSans-Black';}
	.st6{font-size:11.0267px;}
</style>
<g>
	<circle class="st0" cx="260.5" cy="18.1" r="4"/>
	<circle class="st0" cx="252.5" cy="26" r="4"/>
	<circle class="st0" cx="268.4" cy="26" r="4"/>
	<circle class="st0" cx="234" cy="30.3" r="6.4"/>
	<circle class="st0" cx="234" cy="30.3" r="9"/>
	<circle class="st0" cx="234" cy="30.3" r="12.5"/>
	<circle class="st0" cx="49.4" cy="30.3" r="6.4"/>
	<circle class="st0" cx="49.4" cy="30.3" r="9"/>
	<circle class="st0" cx="49.4" cy="30.3" r="12.5"/>
	<circle class="st0" cx="260.5" cy="33.9" r="4"/>
	<path class="st0" d="M226.5,45.9h21.3c2,0,3.6,1.6,3.6,3.6v21.3c0,2-1.6,3.6-3.6,3.6h-21.3c-2,0-3.6-1.6-3.6-3.6V49.5
		C222.9,47.5,224.5,45.9,226.5,45.9z"/>
	<path class="st0" d="M35.6,45.9h21.3c2,0,3.6,1.6,3.6,3.6v21.3c0,2-1.6,3.6-3.6,3.6H35.6c-2,0-3.6-1.6-3.6-3.6V49.5
		C32,47.5,33.7,45.9,35.6,45.9z"/>
	<rect x="73.6" y="18.1" class="st1" width="136.2" height="85.2"/>
	<path class="st0" d="M64.9,13.7h153.7c0.6,0,1.1,0.5,1.1,1.1v94.1c0,0.6-0.5,1.1-1.1,1.1H64.9c-0.6,0-1.1-0.5-1.1-1.1V14.8
		C63.8,14.2,64.3,13.7,64.9,13.7z"/>
	<path class="st0" d="M247.5,17c1,0,1.8-0.8,1.8-1.8s-0.8-1.8-1.8-1.8h-4.4c-1,0-1.8,0.8-1.8,1.8s0.8,1.8,1.8,1.8
		C243.2,17,247.5,17,247.5,17z"/>
	<path class="st0" d="M40.6,17c1,0,1.8-0.8,1.8-1.8s-0.8-1.8-1.8-1.8h-4.4c-1,0-1.8,0.8-1.8,1.8s0.8,1.8,1.8,1.8
		C36.3,17,40.6,17,40.6,17z"/>
	<path class="st0" d="M234,85.7c1.8,0,3.2-1.3,3.2-2.8c0-1.6-1.4-2.8-3.2-2.8h-7.9c-1.8,0-3.2,1.3-3.2,2.8c0,1.6,1.4,2.8,3.2,2.8
		H234z"/>
	<path class="st0" d="M224.8,92.3c0.4,0,0.7-0.3,0.7-0.6c0-0.3-0.3-0.6-0.7-0.6H223c-0.4,0-0.7,0.3-0.7,0.6c0,0.3,0.3,0.6,0.7,0.6
		H224.8z"/>
	<path class="st0" d="M228.7,92.3c0.4,0,0.7-0.3,0.7-0.6c0-0.3-0.3-0.6-0.7-0.6H227c-0.4,0-0.7,0.3-0.7,0.6c0,0.3,0.3,0.6,0.7,0.6
		H228.7z"/>
	<path class="st0" d="M232.7,92.3c0.4,0,0.7-0.3,0.7-0.6c0-0.3-0.3-0.6-0.7-0.6H231c-0.4,0-0.7,0.3-0.7,0.6c0,0.3,0.3,0.6,0.7,0.6
		H232.7z"/>
	<path class="st0" d="M236.7,92.3c0.4,0,0.7-0.3,0.7-0.6c0-0.3-0.3-0.6-0.7-0.6H235c-0.4,0-0.7,0.3-0.7,0.6c0,0.3,0.3,0.6,0.7,0.6
		H236.7z"/>
	<path class="st0" d="M226.8,95.1c0.4,0,0.7-0.3,0.7-0.6s-0.3-0.6-0.7-0.6H223c-0.4,0-0.7,0.3-0.7,0.6s0.3,0.6,0.7,0.6H226.8z"/>
	<path class="st0" d="M230.6,95.1c0.4,0,0.7-0.3,0.7-0.6s-0.3-0.6-0.7-0.6h-1.7c-0.4,0-0.7,0.3-0.7,0.6s0.3,0.6,0.7,0.6H230.6z"/>
	<path class="st0" d="M234.6,95.1c0.4,0,0.7-0.3,0.7-0.6s-0.3-0.6-0.7-0.6h-1.7c-0.4,0-0.7,0.3-0.7,0.6s0.3,0.6,0.7,0.6H234.6z"/>
	<path class="st0" d="M224.8,97.9c0.4,0,0.7-0.3,0.7-0.6c0-0.3-0.3-0.6-0.7-0.6H223c-0.4,0-0.7,0.3-0.7,0.6c0,0.3,0.3,0.6,0.7,0.6
		H224.8z"/>
	<path class="st0" d="M228.6,97.9c0.4,0,0.7-0.3,0.7-0.6c0-0.3-0.3-0.6-0.7-0.6h-1.7c-0.4,0-0.7,0.3-0.7,0.6c0,0.3,0.3,0.6,0.7,0.6
		H228.6z"/>
	<path class="st0" d="M232.6,97.9c0.4,0,0.7-0.3,0.7-0.6c0-0.3-0.3-0.6-0.7-0.6h-1.7c-0.4,0-0.7,0.3-0.7,0.6c0,0.3,0.3,0.6,0.7,0.6
		H232.6z"/>
	<path class="st0" d="M49.9,85.7c-1.8,0-3.2-1.3-3.2-2.8c0-1.6,1.4-2.8,3.2-2.8h7.9c1.8,0,3.2,1.3,3.2,2.8c0,1.6-1.4,2.8-3.2,2.8
		H49.9z"/>
	<path class="st0" d="M59.1,92.3c-0.4,0-0.7-0.3-0.7-0.6c0-0.3,0.3-0.6,0.7-0.6h1.7c0.4,0,0.7,0.3,0.7,0.6c0,0.3-0.3,0.6-0.7,0.6
		H59.1z"/>
	<path class="st0" d="M55.1,92.3c-0.4,0-0.7-0.3-0.7-0.6c0-0.3,0.3-0.6,0.7-0.6h1.7c0.4,0,0.7,0.3,0.7,0.6c0,0.3-0.3,0.6-0.7,0.6
		H55.1z"/>
	<path class="st0" d="M51.1,92.3c-0.4,0-0.7-0.3-0.7-0.6c0-0.3,0.3-0.6,0.7-0.6h1.7c0.4,0,0.7,0.3,0.7,0.6c0,0.3-0.3,0.6-0.7,0.6
		H51.1z"/>
	<path class="st0" d="M47.1,92.3c-0.4,0-0.7-0.3-0.7-0.6c0-0.3,0.3-0.6,0.7-0.6h1.7c0.4,0,0.7,0.3,0.7,0.6c0,0.3-0.3,0.6-0.7,0.6
		H47.1z"/>
	<path class="st0" d="M57,95.1c-0.4,0-0.7-0.3-0.7-0.6s0.3-0.6,0.7-0.6h3.8c0.4,0,0.7,0.3,0.7,0.6s-0.3,0.6-0.7,0.6H57z"/>
	<path class="st0" d="M53.2,95.1c-0.4,0-0.7-0.3-0.7-0.6s0.3-0.6,0.7-0.6h1.7c0.4,0,0.7,0.3,0.7,0.6s-0.3,0.6-0.7,0.6H53.2z"/>
	<path class="st0" d="M49.2,95.1c-0.4,0-0.7-0.3-0.7-0.6s0.3-0.6,0.7-0.6h1.7c0.4,0,0.7,0.3,0.7,0.6c0,0.3-0.3,0.6-0.7,0.6H49.2z"/>
	<path class="st0" d="M59.1,97.9c-0.4,0-0.7-0.3-0.7-0.6c0-0.3,0.3-0.6,0.7-0.6h1.7c0.4,0,0.7,0.3,0.7,0.6c0,0.3-0.3,0.6-0.7,0.6
		H59.1z"/>
	<path class="st0" d="M55.3,97.9c-0.4,0-0.7-0.3-0.7-0.6c0-0.3,0.3-0.6,0.7-0.6H57c0.4,0,0.7,0.3,0.7,0.6c0,0.3-0.3,0.6-0.7,0.6
		H55.3z"/>
	<path class="st0" d="M51.3,97.9c-0.4,0-0.7-0.3-0.7-0.6c0-0.3,0.3-0.6,0.7-0.6H53c0.4,0,0.7,0.3,0.7,0.6c0,0.3-0.3,0.6-0.7,0.6
		H51.3z"/>
	<path class="st0" d="M141.7,113.7l-105.1-0.1C20,113.8,9.1,104.7,8,89L7.1,27.4c0-10.4,8.4-18.8,18.8-18.8h115.9h115.9
		c10.4,0,18.8,8.4,18.8,18.8L275.5,89c-1.1,15.6-12,24.7-28.6,24.6L141.7,113.7L141.7,113.7z"/>
	<path class="st0" d="M7.1,30.6c0-10.4,8.4-18.8,18.8-18.8h115.9h115.9c10.4,0,18.8,8.4,18.8,18.8"/>
	<g>
		<path class="st0" d="M233.9,113.9c2.8,0,13,0,13,0c16.6,0.2,27.5-8.9,28.6-24.6l0.6-43h-11.9c-4.1,0-4.5,4.2-4.5,4.2
			s0,10.5-0.1,18.2c-0.1,7.8-3.5,11.6-3.5,11.6s-18.5,26.2-20.8,29.3C233.7,111.9,233.7,113.3,233.9,113.9L233.9,113.9z"/>
		<path class="st0" d="M50,113.9l-13.4,0C20,114,9.1,104.9,8,89.3L7.5,52.5v-6.2h12.2c4.1,0,4.5,4.2,4.5,4.2s0,10.5,0.1,18.2
			s3.5,11.6,3.5,11.6s18.5,26.2,20.8,29.3C50.1,111.9,50.1,113.2,50,113.9L50,113.9z"/>
	</g>
	<path class="st2" d="M33.1,22.5c-0.2-0.2-0.4-0.2-0.5-0.1h-4.4c0,0-0.1,0-0.1,0c-0.1,0-0.4-0.1-0.6-0.2c0,0-0.1-0.1-0.1-0.1
		c0,0,0,0,0,0c0,0,0-0.1,0-0.1s0-0.1,0-0.1c0,0,0-0.1,0-0.1c0,0,0,0,0-0.1c0-0.1,0-0.1,0-0.2c0-1,0-4.2,0-4.4c0-0.1,0-0.3-0.1-0.5
		c-0.4-0.5-1.5-0.8-3.3-0.8c-1.8,0-3,0.2-3.4,0.7c-0.1,0.2-0.1,0.3-0.1,0.4v4.6c0,0,0,0,0,0c-0.1,0.6-0.4,0.8-1,0.8H15
		c-0.1,0-0.3,0-0.5,0.1c-0.5,0.4-0.8,1.5-0.8,3.3s0.2,3,0.7,3.4c0.2,0.1,0.3,0.1,0.4,0.1l4.6,0v0c0,0,0.2,0,0.3,0.1
		c0.2,0.1,0.5,0.3,0.6,0.8c0,0,0,0,0,0c0,0,0,0.1,0,0.2c0,1,0,4.1,0,4.3c0,0.1,0,0.3,0.1,0.5c0.4,0.5,1.5,0.8,3.3,0.8
		c1.8,0,3-0.2,3.4-0.7c0.1-0.2,0.1-0.3,0.1-0.4v-4.6h0c0-0.3,0.1-0.5,0.2-0.7c0.2-0.2,0.4-0.3,0.8-0.3l0,0v0l4.6,0
		c0.1,0,0.2,0,0.4-0.1c0.5-0.4,0.7-1.5,0.7-3.4C33.9,23.9,33.7,22.9,33.1,22.5L33.1,22.5z M33,28.8c-0.1,0.1-0.1,0.1-0.1,0.1l0,0
		l-4.6,0c0,0-0.6-0.1-1,0.3c0,0,0,0-0.1,0.1c0,0,0,0,0,0c-0.3,0.4-0.3,0.9-0.3,0.9l0,4.6l0,0.1c0,0,0,0,0,0.1
		c-0.1,0.2-0.7,0.6-3,0.6c-2.1,0-2.8-0.4-3-0.6c-0.1-0.1-0.1-0.2-0.1-0.2l0,0l0,0c0,0,0-3.4,0-4.4c0,0,0,0,0-0.1c0,0,0-0.1,0-0.1
		c0-0.3-0.2-0.6-0.4-0.8C20.2,29.1,20,29,19.8,29c-0.2-0.1-0.3-0.1-0.4-0.1l-4.6,0h0l0,0c0,0,0,0-0.1-0.1c-0.2-0.1-0.5-0.7-0.5-3
		c0-2.1,0.4-2.8,0.6-3c0.1-0.1,0.2-0.1,0.2-0.1l4.5,0c0.1,0,0.2,0,0.3,0c0.3,0,0.6-0.2,0.8-0.4c0.3-0.3,0.3-0.7,0.3-0.8
		c0,0,0-0.1,0-0.1c0-0.2,0-0.4,0-0.4l0-4.1v0l0,0c0,0,0,0,0.1-0.1c0.1-0.2,0.7-0.5,3-0.5c2.1,0,2.8,0.4,3,0.6
		c0.1,0.1,0.1,0.2,0.1,0.2l0,0l0,0c0,0,0,3.4,0,4.4l0,0c0,0,0,0.1,0,0.2c0,0,0,0,0,0.1c0,0.1,0,0.1,0,0.2c0,0,0,0.1,0,0.1
		c0,0,0,0.1,0.1,0.1c0,0,0,0,0,0c0,0.1,0.1,0.1,0.1,0.2c0.2,0.2,0.5,0.3,0.8,0.3c0.1,0,0.2,0,0.2,0c0,0,0,0,0,0l0,0h4.4l0,0
		c0,0,0.1,0,0.2,0.1c0.2,0.1,0.6,0.7,0.6,3S33.1,28.7,33,28.8L33,28.8z"/>
	<path class="st0" d="M50,8.6c0,0-0.4-1-3.1-1H26.1c0,0-7.7,0.1-10.2,3.9c0,0,4.9-3.2,12.8-2.8L50,8.6L50,8.6z"/>
	<path class="st0" d="M233,8.6c0,0,0.4-1,3.1-1s20.8,0,20.8,0s7.7,0.1,10.2,3.9c0,0-4.9-3.2-12.8-2.8L233,8.6L233,8.6z"/>
	<g>
		<g>
			<g>
				<path class="st3" d="M137.8,68v-3.4c3.3,0,6-2.7,6-6s-2.7-6-6-6v-3.4c5.2,0,9.4,4.2,9.4,9.4C147.2,63.8,143,68,137.8,68z"/>
				<circle class="st4" cx="137.8" cy="58.6" r="4.7"/>
			</g>
			<g>
				<g>
					<path class="st3" d="M153.6,56.1c0.3,0.1,0.5,0.2,0.7,0.4l-0.3,0.5c-0.2-0.1-0.4-0.2-0.6-0.3c-0.2-0.1-0.5-0.1-0.7-0.1
						c-0.3,0-0.6,0.1-0.8,0.2c-0.2,0.1-0.3,0.3-0.3,0.6c0,0.2,0.1,0.3,0.2,0.4c0.1,0.1,0.2,0.2,0.4,0.3c0.2,0.1,0.4,0.2,0.7,0.3
						c0.4,0.2,0.7,0.3,0.9,0.4c0.2,0.1,0.4,0.3,0.5,0.4c0.2,0.2,0.2,0.4,0.2,0.7c0,0.3-0.1,0.6-0.2,0.8c-0.2,0.2-0.4,0.4-0.7,0.5
						c-0.3,0.1-0.6,0.2-1,0.2c-0.3,0-0.6,0-1-0.1c-0.3-0.1-0.6-0.2-0.9-0.4l0.3-0.6c0.2,0.1,0.5,0.2,0.8,0.3
						c0.3,0.1,0.6,0.1,0.8,0.1c0.4,0,0.7-0.1,0.9-0.2c0.2-0.2,0.3-0.4,0.3-0.6c0-0.2-0.1-0.3-0.2-0.4c-0.1-0.1-0.2-0.2-0.4-0.3
						c-0.2-0.1-0.4-0.2-0.7-0.3c-0.4-0.1-0.6-0.3-0.9-0.4c-0.2-0.1-0.4-0.3-0.6-0.5c-0.2-0.2-0.2-0.5-0.2-0.8c0-0.3,0.1-0.5,0.2-0.7
						s0.4-0.4,0.6-0.5c0.3-0.1,0.6-0.2,1-0.2C153.1,56,153.4,56,153.6,56.1z"/>
					<path class="st3" d="M156.9,56.7h-1.8v-0.6h4.2v0.6h-1.8v4.7h-0.7V56.7z"/>
					<path class="st3" d="M163.7,56.7H161v1.7h2.4V59H161v1.8h2.7v0.6h-3.4v-5.4h3.4V56.7z"/>
					<path class="st3" d="M168,60.1h-2.4l-0.5,1.3h-0.8l2-5.4h0.8l2,5.4h-0.8L168,60.1z M167.8,59.5l-1-2.7l-1,2.7H167.8z"/>
					<path class="st3" d="M175.6,56.1v5.4h-0.7v-4l-1.8,4h-0.5l-1.8-3.9v4h-0.7v-5.4h0.7l2,4.4l1.9-4.4H175.6z"/>
					<path class="st3" d="M182.5,56.4c0.4,0.2,0.8,0.5,1.1,0.9c0.3,0.4,0.4,0.9,0.4,1.4c0,0.5-0.1,1-0.4,1.4
						c-0.3,0.4-0.6,0.7-1.1,0.9c-0.4,0.2-1,0.3-1.5,0.3h-1.9v-5.4h1.9C181.6,56.1,182.1,56.2,182.5,56.4z M180.7,57.5v2.6h0.4
						c0.8,0,1.2-0.4,1.2-1.3c0-0.5-0.1-0.8-0.3-1s-0.5-0.3-0.9-0.3H180.7z"/>
					<path class="st3" d="M188.6,57.4h-2.3v0.7h1.9v1.3h-1.9v0.7h2.3v1.3h-3.8v-5.4h3.8V57.4z"/>
					<path class="st3" d="M193.1,56.1c0.3,0.1,0.6,0.2,0.8,0.4l-0.7,1.2c-0.1-0.1-0.3-0.2-0.5-0.2c-0.2-0.1-0.4-0.1-0.6-0.1
						c-0.4,0-0.7,0.1-0.9,0.4c-0.2,0.2-0.4,0.6-0.4,1.1c0,0.4,0.1,0.8,0.3,1c0.2,0.2,0.5,0.4,0.9,0.4c0.4,0,0.8-0.1,1.1-0.4l0.7,1.1
						c-0.2,0.2-0.5,0.4-0.8,0.5c-0.4,0.1-0.7,0.2-1.2,0.2c-0.5,0-1-0.1-1.4-0.3c-0.4-0.2-0.7-0.6-1-1c-0.2-0.4-0.3-0.9-0.3-1.5
						c0-0.6,0.1-1.1,0.3-1.5c0.2-0.4,0.6-0.8,1-1s0.9-0.4,1.5-0.4C192.4,55.9,192.8,56,193.1,56.1z"/>
					<path class="st3" d="M197.9,61.4l-1.3-2l-0.4,0.4v1.5h-1.6v-5.4h1.6V58l1.6-1.9h1.9l-2,2.2l2.2,3.1H197.9z"/>
				</g>
				<g>
					<path class="st3" d="M200.7,56.1h-0.3v-0.2h0.9v0.2H201V57h-0.2V56.1z"/>
					<path class="st3" d="M202.6,55.9V57h-0.2v-0.7l-0.3,0.7H202l-0.3-0.7V57h-0.2v-1.1h0.2l0.4,0.8l0.3-0.8H202.6z"/>
				</g>
			</g>
		</g>
		<text transform="matrix(1 0 0 1 81.7212 62.4096)" class="st3 st5 st6">O GUIA D</text>
	</g>
</g>
</svg>
