<svg width="200" height="200" viewBox="0 0 200 200" fill="none" xmlns="http://www.w3.org/2000/svg">
<path fill-rule="evenodd" clip-rule="evenodd" d="M130.355 100.557C130.355 72.9561 107.98 50.5813 80.3789 50.5813V22.5947C123.436 22.5947 158.341 57.4996 158.341 100.557C158.341 143.615 123.436 178.52 80.3789 178.52V150.533C107.98 150.533 130.355 128.158 130.355 100.557Z" fill="white"/>
<path d="M80.3796 139.622C101.908 139.622 119.361 122.169 119.361 100.64C119.361 79.1117 101.908 61.6592 80.3796 61.6592C58.8509 61.6592 41.3984 79.1117 41.3984 100.64C41.3984 122.169 58.8509 139.622 80.3796 139.622Z" fill="url(#paint0_linear_63_15)"/>
<defs>
<linearGradient id="paint0_linear_63_15" x1="11.4042" y1="76.0552" x2="102.966" y2="120.257" gradientUnits="userSpaceOnUse">
<stop offset="0.106991" stop-color="#C957E6"/>
<stop offset="1" stop-color="#1A9FFF"/>
</linearGradient>
</defs>
</svg>
