<?xml version="1.0" encoding="UTF-8"?>
<svg id="Layer_1" data-name="Layer 1" xmlns="http://www.w3.org/2000/svg" width="12.31cm" height="17.47cm" viewBox="0 0 349 495.32">
  <path d="m343,146.01H0V0c.58,0,1.16.02,1.74.02,113.1,0,226.21,0,339.31,0h1.92c0,.77,0,1.38,0,2,0,47.42,0,94.83,0,142.25,0,.58.01,1.16.02,1.74ZM171.41,9.42v-.03c-31.03,0-62.06,0-93.09,0-16.62,0-33.23.02-49.85.04-4.32,0-8.15,1.44-11.46,4.16-5.07,4.16-7.43,9.54-7.3,16.11.12,6.25,0,12.5.03,18.75.07,17.75.05,35.5.28,53.25.12,8.99,3.03,17.15,8.89,24.07,3.86,4.55,8.73,7.69,14.53,9.32,4.56,1.28,9.25,1.51,13.94,1.52,24.3.04,48.6.02,72.91.02,48.4,0,96.79.02,145.19-.02,12.21,0,24.42-.15,36.63-.29,3.68-.04,7.27-.76,10.65-2.22,9.4-4.08,15.14-11.35,18.3-20.89,1.91-5.75,2.17-11.7,2.2-17.65.08-22.06.07-44.11-.02-66.17,0-2.53-.31-5.17-1.1-7.55-1.96-5.88-9.05-12.47-18.52-12.45-47.4.07-94.8.03-142.2.03Z"/>
  <path d="m187.11,368.1c47.4,0,94.8.04,142.2-.03,9.47-.01,16.57,6.57,18.52,12.45.79,2.38,1.09,5.03,1.1,7.55.08,22.06.1,44.11.02,66.17-.02,5.95-.29,11.9-2.2,17.65-3.16,9.54-8.89,16.81-18.3,20.89-3.39,1.47-6.98,2.18-10.65,2.22-12.21.14-24.42.28-36.63.29-48.4.03-96.79.02-145.19.02-24.3,0-48.6.02-72.91-.02-4.69,0-9.38-.23-13.94-1.52-5.8-1.63-10.67-4.77-14.53-9.32-5.86-6.92-8.77-15.09-8.89-24.07-.23-17.75-.21-35.5-.28-53.25-.02-6.25.09-12.5-.03-18.75-.13-6.57,2.23-11.95,7.3-16.11,3.31-2.72,7.14-4.15,11.46-4.16,16.62-.02,33.23-.03,49.85-.04,31.03,0,62.06,0,93.09,0v.03Zm160.35,43.63c.07-.27.12-.39.12-.51.02-7.65.1-15.31,0-22.96-.02-2.04-.27-4.18-.95-6.09-2.34-6.62-6.74-11.14-14-12.19-2.17-.31-4.38-.36-6.58-.36-93.19-.02-186.37-.02-279.56,0-1.41,0-2.83.06-4.22.24-8.56,1.12-14.99,8.1-15.3,16.38-.3,8.18-.11,16.38-.16,24.58,0,.79.28.97,1.02.96,3.57-.02,7.14-.02,10.72.03,2.13.03,3.61,1.21,4.1,3.28.22.95.29,1.96.29,2.95.02,7.12-.01,14.24.02,21.35.02,4.7,1.21,9.09,3.89,12.99,4.08,5.94,8.24,11.81,12.34,17.73,5.2,7.52,10.38,15.06,15.55,22.6.49.71.99,1.06,1.91,1.06,71.71-.02,143.41-.02,215.12-.02,1.87,0,3.75-.09,5.61.04,1.18.09,1.8-.36,2.43-1.27,4.7-6.91,9.44-13.79,14.19-20.67,4-5.79,7.91-11.64,12.06-17.32,3.85-5.27,5.6-11.01,5.42-17.52-.18-6.57-.03-13.16-.04-19.74,0-1.85.33-3.49,1.93-4.73,1.22-.94,2.58-.79,3.93-.81,3.36-.04,6.71-.01,10.13-.01Zm-46.57,81.99c.37.03.61.07.84.07,3.61,0,7.23-.09,10.84-.01,4.57.1,8.97-.56,13.35-1.93,8.02-2.51,13.66-7.6,17.12-15.14,3.34-7.27,4.56-14.99,4.58-22.92.02-12.66,0-25.33,0-37.99,0-.81,0-1.62,0-2.53-.63,0-1.04,0-1.45,0-3.12,0-6.23.03-9.35.03-2.97,0-4.01,1.03-4.01,4.03,0,8.36.04,16.72-.06,25.08-.02,1.74-.26,3.64-1,5.18-1.37,2.85-3.06,5.57-4.82,8.2-3.89,5.81-7.92,11.52-11.89,17.28-3.26,4.74-6.5,9.49-9.75,14.23-1.44,2.1-2.88,4.21-4.4,6.43Zm-227.39.04c-2.2-3.26-4.28-6.38-6.41-9.47-7.42-10.82-14.87-21.61-22.28-32.44-2.15-3.15-3.29-6.59-3.24-10.48.1-8.07.04-16.14.03-24.2,0-2.81-1.25-4-4.03-3.97-3.16.04-6.31.04-9.47.07-.39,0-.79.04-1.19.06-.02.36-.04.56-.04.77-.02,12.99,0,25.98-.05,38.97-.03,6.83.86,13.5,3.11,19.98,1.53,4.4,3.8,8.36,6.93,11.78,5,5.45,11.61,7.75,18.68,8.6,4.59.55,9.29.26,13.94.34,1.28.02,2.56,0,4.02,0Z" style="fill: #fff;"/>
  <path d="m347.46,411.73c-3.42,0-6.78-.03-10.13.01-1.35.02-2.71-.13-3.93.81-1.6,1.24-1.93,2.87-1.93,4.73.02,6.58-.14,13.16.04,19.74.18,6.5-1.57,12.25-5.42,17.52-4.15,5.68-8.06,11.53-12.06,17.32-4.75,6.88-9.49,13.76-14.19,20.67-.62.91-1.25,1.36-2.43,1.27-1.86-.13-3.74-.04-5.61-.04-71.71,0-143.41,0-215.12.02-.92,0-1.43-.35-1.91-1.06-5.17-7.54-10.35-15.08-15.55-22.6-4.1-5.92-8.26-11.8-12.34-17.73-2.68-3.9-3.87-8.29-3.89-12.99-.03-7.12,0-14.24-.02-21.35,0-.98-.07-1.99-.29-2.95-.48-2.08-1.96-3.25-4.1-3.28-3.57-.05-7.14-.05-10.72-.03-.74,0-1.03-.18-1.02-.96.05-8.19-.14-16.39.16-24.58.3-8.28,6.74-15.26,15.3-16.38,1.39-.18,2.81-.24,4.22-.24,93.19-.01,186.37-.01,279.56,0,2.19,0,4.41.04,6.58.36,7.26,1.05,11.65,5.57,14,12.19.68,1.91.92,4.05.95,6.09.09,7.65.01,15.31,0,22.96,0,.12-.06.24-.12.51Zm-159.81,77.08c30.99,0,61.98,0,92.97,0,2.29,0,3-.64,3.05-2.92.09-4.18.16-8.36.16-12.53.02-22.18.02-44.35,0-66.53-.01-10.18-.09-20.36-.17-30.53-.02-2.27-.72-2.92-3.01-2.93-1.29,0-2.58.02-3.86.02-60.15,0-120.3,0-180.45,0-.91,0-1.83.02-2.73.15-1.36.2-1.88.8-1.91,2.16-.07,2.85-.15,5.71-.15,8.56-.01,21.72-.02,43.45,0,65.17.01,12.04.07,24.08.13,36.12.01,2.62.73,3.26,3.36,3.26,30.87,0,61.73,0,92.6,0Zm98.4-59.27s-.03,0-.05,0c0,4.22,0,8.44,0,12.66,0,3.2,2.23,5.52,5.44,5.52,8.3,0,16.61-.01,24.91-.09,3.4-.03,5.45-2.22,5.44-5.59,0-4.92,0-9.84,0-14.77,0-3.35.03-6.7-.01-10.05-.04-3.19-2.08-5.39-5.1-5.41-8.43-.06-16.85.04-25.28-.11-2.65-.05-5.47,2.54-5.39,5.18.13,4.21.03,8.44.03,12.65Zm-232.47.13c0,4.14.16,8.28-.05,12.41-.16,3.07,2.73,5.73,5.61,5.7,8.18-.07,16.36-.16,24.54-.08,3.63.04,5.86-2.85,5.82-5.99-.09-6.12.04-12.24.03-18.36,0-2.44-.02-4.89-.29-7.3-.27-2.52-2.33-4.23-4.88-4.24-8.55-.04-17.1-.05-25.65-.01-3.02.01-5.1,2.21-5.12,5.22-.02,4.22,0,8.44,0,12.66Zm-5.66-46.31c0-.95.12-1.83-.03-2.67-.18-1.03-.36-2.17-.93-2.99-1.06-1.55-3.25-2.04-5.04-1.43-1.74.59-2.9,2.21-2.98,4.16q-.12,3.02-3.07,3.06c-1.67.02-3.33,1.13-3.89,2.6-.71,1.86-.27,3.78,1.05,5.02,1.28,1.21,2.84,1.26,4.43,1.15,1.07-.08,1.53.27,1.45,1.39-.05.81.02,1.66.17,2.46.39,1.99,2.37,3.55,4.39,3.53,2.2-.02,4.04-1.52,4.38-3.66.14-.85.17-1.73.13-2.59-.04-.88.32-1.2,1.16-1.17.79.03,1.58.05,2.37,0,2.02-.15,3.72-1.89,3.86-3.9.17-2.38-1.01-4.18-3.21-4.59-1.33-.25-2.7-.23-4.24-.34Zm25.44,19.8c6.28.37,11.21-5.44,11.26-10.55.05-5.42-5.05-11.31-11.18-11.13-5.68.17-10.68,5.07-10.85,10.56-.21,6.61,6.17,11.68,10.78,11.12Zm226.83-.03c5.88.31,11.19-4.99,11.1-11.07-.08-5.63-5.13-10.53-10.91-10.53-6.08,0-10.9,4.81-10.98,10.79-.09,6.62,6.24,11.31,10.79,10.82Zm19.87-20.64c-3.17-.06-5.31,2.21-5.34,5.66-.03,2.66,2.6,5.2,5.42,5.24,2.79.04,5.39-2.47,5.44-5.23.05-3.29-2.21-5.62-5.52-5.68Zm15.27-4.32c0-3.19-2.22-5.36-5.51-5.38-3.03-.02-5.3,2.31-5.34,5.48-.03,2.92,2.36,5.22,5.43,5.23,3.15,0,5.42-2.23,5.42-5.34Zm4.45,4.36c-2.95-.06-5.58,2.4-5.46,5.4.12,2.93,2.03,5.23,5.24,5.39,2.89.14,5.61-2.45,5.64-5.3.03-2.97-2.39-5.42-5.42-5.49Zm-9.82,9.89c-3.19,0-5.44,2.3-5.4,5.5.03,2.65,2.57,5.17,5.21,5.18,3,.02,5.6-2.44,5.61-5.31.01-3.07-2.33-5.39-5.43-5.38Z"/>
  <path d="m300.89,493.72c1.52-2.22,2.96-4.33,4.4-6.43,3.25-4.74,6.49-9.49,9.75-14.23,3.96-5.76,7.99-11.48,11.89-17.28,1.77-2.63,3.46-5.35,4.82-8.2.74-1.54.98-3.44,1-5.18.1-8.36.05-16.72.06-25.08,0-3,1.04-4.04,4.01-4.03,3.12,0,6.23-.02,9.35-.03.41,0,.82,0,1.45,0,0,.91,0,1.72,0,2.53,0,12.66.03,25.33,0,37.99-.01,7.93-1.24,15.65-4.58,22.92-3.46,7.55-9.1,12.63-17.12,15.14-4.37,1.37-8.78,2.02-13.35,1.93-3.61-.08-7.23,0-10.84.01-.23,0-.47-.04-.84-.07Z"/>
  <path d="m73.5,493.76c-1.46,0-2.74.02-4.02,0-4.65-.08-9.34.21-13.94-.34-7.07-.84-13.68-3.15-18.68-8.6-3.14-3.42-5.41-7.38-6.93-11.78-2.25-6.48-3.14-13.15-3.11-19.98.05-12.99.04-25.98.05-38.97,0-.2.02-.41.04-.77.4-.02.8-.06,1.19-.06,3.16-.02,6.31-.03,9.47-.07,2.78-.03,4.03,1.16,4.03,3.97,0,8.07.06,16.14-.03,24.2-.05,3.88,1.09,7.33,3.24,10.48,7.41,10.82,14.86,21.62,22.28,32.44,2.12,3.09,4.21,6.21,6.41,9.47Z"/>
  <path d="m187.65,488.82c-30.87,0-61.73,0-92.6,0-2.63,0-3.35-.64-3.36-3.26-.06-12.04-.12-24.08-.13-36.12-.02-21.72-.01-43.45,0-65.17,0-2.85.08-5.71.15-8.56.03-1.36.54-1.96,1.91-2.16.9-.13,1.82-.15,2.73-.15,60.15,0,120.3,0,180.45,0,1.29,0,2.58-.02,3.86-.02,2.29.01,3,.66,3.01,2.93.07,10.18.16,20.36.17,30.53.02,22.18.02,44.35,0,66.53,0,4.18-.07,8.36-.16,12.53-.05,2.28-.77,2.92-3.05,2.92-30.99,0-61.98,0-92.97,0Zm.02-114.12c-23.46,0-46.93,0-70.39,0-7.43,0-14.87.03-22.3.05-1.57,0-1.67.14-1.59,1.74.03.66.06,1.32.06,1.98,0,32.81,0,65.63,0,98.44,0,2.86.03,5.71-.01,8.57-.03,2.01-.07,2,1.92,2,45.07,0,90.14,0,135.21-.01,16.12,0,32.24,0,48.35-.03,3.02,0,3.01-.08,3.01-3.04,0-34.02,0-68.03,0-102.05,0-2.03-.05-4.06.04-6.08.05-1.17-.38-1.53-1.5-1.49-1.33.05-2.66-.08-3.99-.08-29.61,0-59.22,0-88.83,0Z" style="fill: #fff;"/>
  <path d="m286.05,429.54c0-4.22.1-8.44-.03-12.65-.08-2.65,2.74-5.23,5.39-5.18,8.42.15,16.85.05,25.28.11,3.02.02,5.05,2.22,5.1,5.41.05,3.35.01,6.7.01,10.05,0,4.92,0,9.84,0,14.77,0,3.37-2.05,5.56-5.44,5.59-8.3.08-16.61.1-24.91.09-3.21,0-5.43-2.32-5.44-5.52,0-4.22,0-8.44,0-12.66.02,0,.03,0,.05,0Zm1.58-.03c0,4.26-.04,8.52.02,12.78.03,2.46,1.45,3.77,3.93,3.82.37,0,.75,0,1.12,0,7.6.02,15.2.02,22.8.06,3.17.02,4.5-1.35,4.48-4.55-.05-6.37-.05-12.74-.07-19.11,0-1.82.13-3.64.02-5.46-.16-2.69-1.57-3.88-4.3-3.87-7.97.04-15.95.07-23.92.11-2.67.01-4.07,1.4-4.07,4.06,0,4.05,0,8.11,0,12.16Z" style="fill: #fff;"/>
  <path d="m53.58,429.67c0-4.22-.01-8.44,0-12.66.01-3.02,2.1-5.21,5.12-5.22,8.55-.04,17.1-.02,25.65.01,2.54.01,4.6,1.72,4.88,4.24.26,2.42.28,4.87.29,7.3.02,6.12-.11,12.24-.03,18.36.04,3.15-2.19,6.03-5.82,5.99-8.18-.09-16.36,0-24.54.08-2.89.02-5.77-2.64-5.61-5.7.21-4.13.05-8.27.06-12.41Zm33.96.14s-.02,0-.03,0c0-3.97,0-7.94,0-11.92,0-3.48-1.28-4.7-4.74-4.68-7.6.04-15.2.06-22.8.08-3.56,0-4.74,1.06-4.76,4.65-.05,7.7-.02,15.39-.02,23.09,0,.54.06,1.07.12,1.61.23,2.24,1.47,3.45,3.74,3.46,8.22.04,16.45.06,24.67.05,2.4,0,3.82-1.53,3.82-3.92,0-4.14,0-8.28,0-12.41Z" style="fill: #fff;"/>
  <path d="m47.92,383.37c1.54.11,2.91.09,4.24.34,2.2.41,3.38,2.21,3.21,4.59-.14,2.01-1.84,3.75-3.86,3.9-.78.06-1.58.04-2.37,0-.84-.03-1.2.29-1.16,1.17.04.86,0,1.74-.13,2.59-.34,2.14-2.18,3.64-4.38,3.66-2.02.02-4-1.53-4.39-3.53-.16-.8-.23-1.65-.17-2.46.07-1.12-.39-1.47-1.45-1.39-1.59.11-3.15.06-4.43-1.15-1.32-1.24-1.75-3.16-1.05-5.02.56-1.47,2.22-2.58,3.89-2.6q2.95-.04,3.07-3.06c.08-1.95,1.23-3.56,2.98-4.16,1.79-.61,3.98-.11,5.04,1.43.57.83.75,1.97.93,2.99.15.84.03,1.72.03,2.67Zm-7.37,1.43c-1.69,0-3.14-.05-4.58.01-1.99.09-2.9,1.11-2.89,3.1,0,1.59,1.23,2.77,2.99,2.82,1.2.04,2.41.03,3.61.02.69,0,.95.24.92.96-.05,1.24-.04,2.48,0,3.72.08,2.24,2.29,3.46,4.28,2.41,1.26-.66,1.66-1.78,1.69-3.09.03-1.31,0-2.62,0-4.02,1.61,0,3.05.09,4.48-.02,1.85-.14,2.85-1.35,2.78-3.13-.07-1.67-1.3-2.78-3.15-2.8-1.08-.01-2.16,0-3.24.02-.64.02-.89-.24-.87-.88.03-1.16.06-2.32,0-3.47-.09-1.65-1.39-2.88-2.95-2.93-1.7-.05-2.91.97-3.05,2.74-.11,1.43-.02,2.88-.02,4.55Z" style="fill: #fff;"/>
  <path d="m73.36,403.17c-4.61.56-10.99-4.51-10.78-11.12.18-5.49,5.18-10.38,10.85-10.56,6.13-.19,11.23,5.71,11.18,11.13-.05,5.11-4.98,10.92-11.26,10.55Zm.2-20.02c-5.32,0-9.21,3.86-9.21,9.13,0,5.36,4.04,9.36,9.46,9.36,4.99,0,8.97-4.12,8.96-9.3,0-5.43-3.78-9.2-9.22-9.19Z" style="fill: #fff;"/>
  <path d="m300.18,403.14c-4.55.49-10.88-4.2-10.79-10.82.08-5.97,4.9-10.79,10.98-10.79,5.77,0,10.83,4.9,10.91,10.53.09,6.08-5.22,11.39-11.1,11.07Zm.42-1.44c4.57.26,9.3-4.19,9.11-9.37-.19-5.29-4.05-9.25-9.17-9.15-5.44.1-9.67,4.12-9.63,9.26.05,5.16,4.38,9.31,9.68,9.26Z" style="fill: #fff;"/>
  <path d="m320.06,382.5c3.31.06,5.57,2.38,5.52,5.68-.04,2.76-2.65,5.26-5.44,5.23-2.82-.04-5.45-2.58-5.42-5.24.03-3.45,2.17-5.72,5.34-5.66Zm.11,9.23c1.92,0,3.82-1.9,3.84-3.82.02-1.94-1.87-3.86-3.8-3.85-2.27,0-3.97,1.67-3.95,3.87.02,2.12,1.76,3.81,3.92,3.8Z" style="fill: #fff;"/>
  <path d="m335.32,378.18c0,3.11-2.27,5.34-5.42,5.34-3.07,0-5.46-2.31-5.43-5.23.04-3.17,2.3-5.5,5.34-5.48,3.29.02,5.51,2.19,5.51,5.38Zm-5.55-3.91c-1.95,0-3.68,1.78-3.69,3.79,0,2.04,1.7,3.88,3.58,3.88,2.31,0,4.14-1.74,4.11-3.91-.02-2.03-1.88-3.77-4.01-3.77Z" style="fill: #fff;"/>
  <path d="m339.77,382.54c3.03.06,5.45,2.51,5.42,5.49-.03,2.85-2.75,5.44-5.64,5.3-3.21-.16-5.12-2.45-5.24-5.39-.12-3,2.51-5.46,5.46-5.4Zm-.09,9.19c2.15-.02,4.08-1.85,4.06-3.86-.02-2.11-1.89-3.87-4.07-3.83-2.2.04-3.95,1.82-3.9,3.96.05,1.91,1.98,3.75,3.91,3.73Z" style="fill: #fff;"/>
  <path d="m329.95,392.43c3.1,0,5.44,2.31,5.43,5.38-.01,2.87-2.61,5.33-5.61,5.31-2.65-.02-5.18-2.54-5.21-5.18-.04-3.2,2.21-5.49,5.4-5.5Zm3.83,5.2c0-2.22-1.72-3.89-3.98-3.87-2.14.02-3.8,1.74-3.79,3.93,0,2.07,1.94,3.93,4.05,3.89,1.92-.03,3.72-1.94,3.72-3.95Z" style="fill: #fff;"/>
  <path d="m287.62,429.51c0-4.05,0-8.11,0-12.16,0-2.65,1.4-4.04,4.07-4.06,7.97-.04,15.95-.07,23.92-.11,2.73-.01,4.14,1.18,4.3,3.87.11,1.81-.02,3.64-.02,5.46.01,6.37.02,12.74.07,19.11.02,3.21-1.31,4.57-4.48,4.55-7.6-.04-15.2-.04-22.8-.06-.37,0-.75.02-1.12,0-2.48-.06-3.89-1.36-3.93-3.82-.06-4.26-.02-8.52-.02-12.78Z"/>
  <path d="m87.55,429.81c0,4.14,0,8.28,0,12.41,0,2.39-1.43,3.92-3.82,3.92-8.22.01-16.45,0-24.67-.05-2.27-.01-3.51-1.22-3.74-3.46-.06-.53-.12-1.07-.12-1.61,0-7.7-.04-15.39.02-23.09.03-3.59,1.2-4.64,4.76-4.65,7.6-.01,15.2-.03,22.8-.08,3.46-.02,4.73,1.2,4.74,4.68,0,3.97,0,7.94,0,11.92,0,0,.02,0,.03,0Z"/>
  <path d="m40.56,384.8c0-1.67-.09-3.12.02-4.55.13-1.77,1.35-2.78,3.05-2.74,1.57.04,2.86,1.28,2.95,2.93.07,1.15.04,2.31,0,3.47-.02.65.23.9.87.88,1.08-.03,2.16-.03,3.24-.02,1.85.02,3.09,1.13,3.15,2.8.07,1.78-.93,2.99-2.78,3.13-1.43.11-2.88.02-4.48.02,0,1.41.02,2.72,0,4.02-.03,1.31-.44,2.43-1.69,3.09-1.99,1.05-4.2-.17-4.28-2.41-.05-1.24-.06-2.48,0-3.72.03-.72-.23-.97-.92-.96-1.2.02-2.41.02-3.61-.02-1.76-.05-2.98-1.23-2.99-2.82,0-1.99.9-3.01,2.89-3.1,1.44-.07,2.88-.01,4.58-.01Z"/>
  <path d="m73.56,383.15c5.43,0,9.21,3.76,9.22,9.19,0,5.18-3.97,9.31-8.96,9.3-5.43,0-9.47-4-9.46-9.36,0-5.28,3.89-9.13,9.21-9.13Z"/>
  <path d="m300.61,401.7c-5.3.04-9.63-4.1-9.68-9.26-.05-5.14,4.19-9.16,9.63-9.26,5.12-.1,8.98,3.87,9.17,9.15.19,5.18-4.54,9.63-9.11,9.37Z"/>
  <path d="m320.16,391.73c-2.16.01-3.9-1.68-3.92-3.8-.02-2.2,1.68-3.86,3.95-3.87,1.93,0,3.82,1.91,3.8,3.85-.02,1.92-1.92,3.81-3.84,3.82Z"/>
  <path d="m329.77,374.27c2.13,0,3.98,1.73,4.01,3.77.03,2.17-1.8,3.91-4.11,3.91-1.89,0-3.59-1.84-3.58-3.88,0-2.01,1.74-3.78,3.69-3.79Z"/>
  <path d="m339.68,391.72c-1.94.02-3.87-1.82-3.91-3.73-.05-2.14,1.7-3.92,3.9-3.96,2.18-.04,4.04,1.72,4.07,3.83.02,2.01-1.9,3.84-4.06,3.86Z"/>
  <path d="m333.78,397.63c0,2.01-1.8,3.92-3.72,3.95-2.11.04-4.05-1.82-4.05-3.89,0-2.19,1.65-3.92,3.79-3.93,2.26-.02,3.98,1.66,3.98,3.87Z"/>
</svg>