<?xml version="1.0" standalone="no"?>
<!DOCTYPE svg PUBLIC "-//W3C//DTD SVG 20010904//EN"
 "http://www.w3.org/TR/2001/REC-SVG-20010904/DTD/svg10.dtd">
<svg version="1.0" xmlns="http://www.w3.org/2000/svg"
 width="881.000000pt" height="881.000000pt" viewBox="0 0 881.000000 881.000000"
 preserveAspectRatio="xMidYMid meet">
<metadata>
Created by potrace 1.14, written by Peter Selinger 2001-2017
</metadata>
<g transform="translate(0.000000,881.000000) scale(0.100000,-0.100000)"
fill="#000000" stroke="none">
<path d="M550 6143 c0 -4 172 -7 382 -5 347 3 459 -1 445 -14 -2 -2 -195 -6
-428 -8 -433 -3 -478 -7 -565 -45 -25 -11 -42 -15 -38 -10 9 15 90 48 149 61
27 6 44 13 37 15 -18 7 -140 -32 -180 -57 -18 -11 -30 -25 -27 -30 4 -6 3 -9
-2 -8 -16 5 -143 -102 -187 -158 -96 -123 -133 -241 -135 -436 -2 -140 7 -156
13 -22 10 223 151 431 351 519 95 42 165 55 300 55 69 0 124 3 122 8 -6 9
-196 7 -261 -2 -223 -34 -412 -190 -491 -405 -12 -31 -14 -33 -14 -11 -3 93
97 278 193 360 78 66 189 121 271 134 22 4 49 9 59 12 11 4 242 7 513 7 271 0
493 3 493 7 0 3 -28 6 -62 5 -41 -1 -72 4 -88 14 -21 14 -85 16 -437 19 -227
2 -413 -1 -413 -5z m-533 -605 c-3 -8 -6 -5 -6 6 -1 11 2 17 5 13 3 -3 4 -12
1 -19z"/>
<path d="M7408 6138 c-16 -5 -28 -13 -28 -17 0 -3 -67 -6 -150 -6 -82 1 -147
-1 -144 -4 3 -3 71 -6 151 -7 131 -2 149 0 173 18 25 18 42 19 436 15 225 -2
425 -7 444 -11 42 -9 132 -47 126 -53 -2 -2 -20 2 -39 10 -19 9 -66 20 -104
26 -81 12 -860 14 -868 1 -3 -4 183 -8 413 -7 399 0 421 -1 497 -22 83 -23
206 -75 239 -101 109 -89 194 -224 222 -355 20 -91 16 -98 -11 -21 -67 190
-234 341 -430 390 -70 17 -175 26 -175 14 0 -4 25 -9 55 -9 30 -1 58 -2 63 -3
4 -1 25 -5 47 -10 22 -4 78 -26 125 -48 146 -70 256 -199 314 -368 l26 -75 -3
-298 c-2 -163 -6 -299 -8 -301 -2 -3 -101 -6 -219 -8 -324 -5 -307 19 -311
-443 -5 -514 -5 -514 -235 -835 -69 -96 -147 -206 -174 -245 -110 -157 -239
-341 -247 -350 -52 -62 -174 -250 -184 -282 l-12 -43 -1106 -2 c-608 0 -1938
0 -2956 1 -1017 1 -1847 0 -1843 -4 8 -9 6504 -10 6558 -1 323 54 566 242 665
517 59 166 59 157 70 1049 4 294 9 612 10 705 9 626 8 660 -40 776 -32 79 -94
168 -157 223 -130 114 -206 158 -310 181 -78 16 -837 20 -880 3z m1368 -1620
c-4 -200 -8 -516 -11 -703 -5 -359 -8 -404 -31 -500 -47 -191 -129 -323 -270
-435 -94 -75 -186 -120 -319 -156 -32 -9 -104 -22 -165 -30 -58 -7 -559 -9
-566 -1 -15 15 33 97 163 281 79 111 147 208 153 216 6 8 57 80 114 160 281
396 324 459 348 510 58 125 63 169 67 586 3 364 3 366 69 411 31 20 44 22 243
23 l211 1 -6 -363z"/>
<path d="M1566 6111 c7 -8 144 -9 144 -1 0 3 -34 6 -75 6 -42 1 -73 -2 -69 -5z"/>
<path d="M1726 6111 c7 -8 144 -9 144 -1 0 3 -34 6 -75 6 -42 1 -73 -2 -69 -5z"/>
<path d="M1886 6111 c7 -8 144 -9 144 -1 0 3 -34 6 -75 6 -42 1 -73 -2 -69 -5z"/>
<path d="M2046 6111 c7 -8 144 -9 144 -1 0 3 -34 6 -75 6 -42 1 -73 -2 -69 -5z"/>
<path d="M2206 6111 c7 -8 144 -9 144 -1 0 3 -34 6 -75 6 -42 1 -73 -2 -69 -5z"/>
<path d="M2366 6111 c7 -8 144 -9 144 -1 0 3 -34 6 -75 6 -42 1 -73 -2 -69 -5z"/>
<path d="M2526 6111 c8 -8 104 -9 104 -1 0 3 -25 6 -55 6 -30 0 -52 -2 -49 -5z"/>
<path d="M2646 6111 c8 -8 104 -9 104 -1 0 3 -25 6 -55 6 -30 0 -52 -2 -49 -5z"/>
<path d="M2766 6110 c8 -7 344 -8 344 -1 0 4 -79 6 -174 6 -96 0 -173 -2 -170
-5z"/>
<path d="M3126 6111 c8 -8 104 -9 104 -1 0 3 -25 6 -55 6 -30 0 -52 -2 -49 -5z"/>
<path d="M3246 6110 c8 -7 344 -8 344 -1 0 4 -79 6 -174 6 -96 0 -173 -2 -170
-5z"/>
<path d="M3606 6111 c8 -8 104 -9 104 -1 0 3 -25 6 -55 6 -30 0 -52 -2 -49 -5z"/>
<path d="M3726 6110 c8 -7 344 -8 344 -1 0 4 -79 6 -174 6 -96 0 -173 -2 -170
-5z"/>
<path d="M4086 6111 c8 -8 104 -9 104 -1 0 3 -25 6 -55 6 -30 0 -52 -2 -49 -5z"/>
<path d="M4206 6110 c8 -7 344 -8 344 -1 0 4 -79 6 -174 6 -96 0 -173 -2 -170
-5z"/>
<path d="M4566 6111 c8 -8 104 -9 104 -1 0 3 -25 6 -55 6 -30 0 -52 -2 -49 -5z"/>
<path d="M4686 6110 c8 -7 344 -8 344 -1 0 4 -79 6 -174 6 -96 0 -173 -2 -170
-5z"/>
<path d="M5046 6111 c8 -8 104 -9 104 -1 0 3 -25 6 -55 6 -30 0 -52 -2 -49 -5z"/>
<path d="M5166 6110 c8 -7 344 -8 344 -1 0 4 -79 6 -174 6 -96 0 -173 -2 -170
-5z"/>
<path d="M5526 6111 c8 -8 104 -9 104 -1 0 3 -25 6 -55 6 -30 0 -52 -2 -49 -5z"/>
<path d="M5646 6110 c8 -7 344 -8 344 -1 0 4 -79 6 -174 6 -96 0 -173 -2 -170
-5z"/>
<path d="M6006 6111 c8 -8 104 -9 104 -1 0 3 -25 6 -55 6 -30 0 -52 -2 -49 -5z"/>
<path d="M6126 6110 c8 -7 344 -8 344 -1 0 4 -79 6 -174 6 -96 0 -173 -2 -170
-5z"/>
<path d="M6486 6111 c8 -8 104 -9 104 -1 0 3 -25 6 -55 6 -30 0 -52 -2 -49 -5z"/>
<path d="M6606 6110 c8 -7 344 -8 344 -1 0 4 -79 6 -174 6 -96 0 -173 -2 -170
-5z"/>
<path d="M6966 6111 c8 -8 104 -9 104 -1 0 3 -25 6 -55 6 -30 0 -52 -2 -49 -5z"/>
<path d="M800 6008 c0 -5 11 -8 25 -8 14 0 25 3 25 8 0 4 -11 7 -25 7 -14 0
-25 -3 -25 -7z"/>
<path d="M878 6008 c-13 -3 35 -6 106 -7 71 -1 126 2 123 6 -9 9 -199 10 -229
1z"/>
<path d="M1120 6008 c0 -4 12 -8 27 -8 14 0 23 3 19 7 -10 10 -46 11 -46 1z"/>
<path d="M1198 6008 c-13 -3 35 -6 106 -7 71 -1 126 2 123 6 -9 9 -199 10
-229 1z"/>
<path d="M1440 6008 c0 -4 12 -8 27 -8 14 0 23 3 19 7 -10 10 -46 11 -46 1z"/>
<path d="M1518 6008 c-13 -3 35 -6 106 -7 71 -1 126 2 123 6 -9 9 -199 10
-229 1z"/>
<path d="M1760 6008 c0 -5 11 -8 25 -8 14 0 25 3 25 8 0 4 -11 7 -25 7 -14 0
-25 -3 -25 -7z"/>
<path d="M1838 6008 c-13 -3 35 -6 106 -7 71 -1 126 2 123 6 -9 9 -199 10
-229 1z"/>
<path d="M2080 6008 c0 -5 70 -8 157 -8 86 0 153 3 150 7 -10 9 -307 10 -307
1z"/>
<path d="M2400 6008 c0 -5 124 -8 276 -7 152 0 273 3 270 6 -9 9 -546 9 -546
1z"/>
<path d="M2963 6008 c-2 -5 49 -8 113 -8 65 0 114 3 111 7 -10 9 -218 10 -224
1z"/>
<path d="M3200 6008 c0 -5 53 -8 117 -8 64 0 113 3 110 7 -10 9 -227 10 -227
1z"/>
<path d="M3444 6008 c-3 -4 102 -7 232 -7 130 0 233 3 230 6 -9 9 -457 9 -462
1z"/>
<path d="M3923 6008 c-2 -5 49 -8 113 -8 65 0 114 3 111 7 -10 9 -218 10 -224
1z"/>
<path d="M4160 6008 c0 -5 53 -8 117 -8 64 0 113 3 110 7 -10 9 -227 10 -227
1z"/>
<path d="M4404 6008 c-3 -4 102 -7 232 -7 130 0 233 3 230 6 -9 9 -457 9 -462
1z"/>
<path d="M4883 6008 c-2 -5 49 -8 113 -8 65 0 114 3 111 7 -10 9 -218 10 -224
1z"/>
<path d="M5120 6008 c0 -5 53 -8 117 -8 64 0 113 3 110 7 -10 9 -227 10 -227
1z"/>
<path d="M5364 6008 c-3 -4 102 -7 232 -7 130 0 233 3 230 6 -9 9 -457 9 -462
1z"/>
<path d="M5843 6008 c-2 -5 49 -8 113 -8 65 0 114 3 111 7 -10 9 -218 10 -224
1z"/>
<path d="M6080 6008 c0 -5 53 -8 117 -8 64 0 113 3 110 7 -10 9 -227 10 -227
1z"/>
<path d="M6324 6008 c-3 -4 102 -7 232 -7 130 0 233 3 230 6 -9 9 -457 9 -462
1z"/>
<path d="M6803 6008 c-2 -5 49 -8 113 -8 65 0 114 3 111 7 -10 9 -218 10 -224
1z"/>
<path d="M7040 6008 c0 -4 12 -8 27 -8 14 0 23 3 19 7 -10 10 -46 11 -46 1z"/>
<path d="M7118 6008 c-13 -3 17 -6 66 -7 49 -1 86 2 83 6 -9 9 -119 10 -149 1z"/>
<path d="M7284 6008 c-3 -4 6 -8 20 -8 14 0 26 4 26 8 0 4 -9 8 -21 8 -11 0
-23 -4 -25 -8z"/>
<path d="M7352 6008 c-9 -3 95 -6 232 -7 137 0 246 2 242 6 -8 8 -452 10 -474
1z"/>
<path d="M7840 6008 c0 -4 12 -8 27 -8 14 0 23 3 19 7 -10 10 -46 11 -46 1z"/>
<path d="M7918 6008 c-13 -3 35 -6 106 -7 71 -1 126 2 123 6 -9 9 -199 10
-229 1z"/>
<path d="M922 5943 c-31 -27 -35 -57 -13 -84 17 -22 28 -24 115 -27 92 -4 96
-3 119 22 29 31 26 69 -6 91 -32 23 -188 21 -215 -2z m211 -7 c24 -19 22 -62
-5 -80 -27 -19 -154 -22 -192 -5 -33 15 -38 43 -14 74 18 23 25 25 106 25 56
-1 93 -5 105 -14z"/>
<path d="M1915 5952 c-22 -2 -45 -8 -52 -14 -20 -16 -19 -3111 1 -3127 9 -8
683 -11 2534 -11 1386 0 2527 3 2536 6 15 6 16 145 16 1564 0 1350 -2 1559
-15 1570 -11 9 -576 12 -2497 13 -1366 1 -2501 1 -2523 -1z m5020 -1577 l0
-1560 -2515 -3 c-1383 -1 -2525 0 -2537 3 l-23 5 0 1554 c0 854 3 1556 7 1559
3 4 1145 6 2537 5 l2531 -3 0 -1560z"/>
<path d="M2170 4410 l0 -1396 2228 0 2227 1 3 1396 2 1395 -2230 0 -2230 0 0
-1396z"/>
<path d="M7670 5940 c-26 -26 -25 -60 1 -89 20 -21 28 -23 114 -19 110 4 141
21 131 73 -10 47 -29 55 -133 55 -80 0 -96 -3 -113 -20z m220 -10 c24 -24 25
-39 6 -66 -12 -16 -29 -20 -99 -22 -51 -3 -93 1 -106 7 -30 16 -38 57 -16 81
15 17 31 20 107 20 75 0 91 -3 108 -20z"/>
<path d="M8265 5930 c4 -6 11 -8 16 -5 14 9 11 15 -7 15 -8 0 -12 -5 -9 -10z"/>
<path d="M8300 5933 c0 -5 14 -14 31 -22 39 -17 69 -66 69 -112 0 -55 -52
-110 -110 -115 -57 -6 -105 21 -126 72 -25 60 9 138 71 164 18 8 18 9 2 9 -11
1 -34 -14 -51 -31 -86 -86 -28 -228 94 -228 98 0 163 116 113 202 -17 28 -93
78 -93 61z"/>
<path d="M537 5884 c-1 -1 -22 -4 -47 -7 -25 -3 -47 -6 -49 -6 -2 -1 0 -8 3
-17 3 -8 2 -12 -4 -9 -6 4 -10 -27 -10 -84 0 -80 -2 -91 -17 -92 -10 -1 -49
-1 -87 -1 -37 0 -74 -2 -82 -5 -20 -8 -37 -108 -22 -130 5 -6 5 -14 -1 -17 -9
-6 3 -61 16 -76 3 -3 43 -5 89 -6 47 0 90 -6 95 -11 6 -6 10 -47 10 -92 0 -74
1 -82 23 -96 38 -25 190 -20 207 7 4 6 8 48 8 92 0 44 5 84 10 89 5 5 49 10
98 11 77 1 88 3 87 18 -1 10 3 15 9 11 6 -4 8 2 5 15 -4 12 -1 22 4 22 6 0 4
8 -3 17 -9 10 -9 14 -2 10 15 -9 13 44 -2 55 -6 5 -6 8 1 8 7 0 9 10 6 25 -2
14 -8 22 -13 19 -5 -3 -6 2 -3 10 7 18 12 17 -89 21 -43 2 -85 6 -93 9 -11 4
-14 27 -14 95 0 52 -4 93 -11 96 -10 7 -117 24 -122 19z m91 -30 c21 -6 22
-11 22 -99 0 -88 1 -92 25 -103 19 -9 25 -9 26 1 0 9 2 9 6 0 2 -7 9 -13 14
-13 6 0 7 5 3 12 -5 7 -3 8 7 2 21 -13 80 -14 72 0 -4 7 -1 6 9 -1 8 -7 17
-10 21 -7 23 24 41 -132 19 -173 -6 -11 -8 -24 -4 -28 4 -5 0 -4 -8 1 -21 12
-52 16 -46 5 7 -10 -20 -9 -30 2 -4 4 -14 1 -22 -6 -13 -9 -14 -9 -8 1 4 6 2
12 -3 12 -6 0 -11 -6 -11 -12 0 -10 -2 -10 -8 0 -6 9 -16 10 -34 3 -30 -11
-38 -33 -27 -74 5 -16 4 -25 -2 -22 -9 6 -2 -62 9 -79 3 -5 -1 -6 -8 -1 -10 6
-12 4 -7 -7 4 -11 -2 -18 -16 -22 -35 -9 -123 -7 -152 4 -25 9 -26 12 -22 75
3 35 1 63 -2 60 -4 -2 -5 9 -3 25 3 22 -1 30 -20 36 -38 13 -118 13 -111 0 5
-8 3 -8 -8 0 -8 6 -22 10 -32 9 -24 -4 -39 36 -38 102 0 63 14 95 38 86 10 -4
14 -2 10 4 -7 10 31 12 48 1 20 -12 100 1 112 19 8 10 13 49 13 99 0 57 4 84
13 87 17 8 128 8 155 1z m-181 -96 c-3 -8 -6 -5 -6 6 -1 11 2 17 5 13 3 -3 4
-12 1 -19z m0 -40 c-3 -8 -6 -5 -6 6 -1 11 2 17 5 13 3 -3 4 -12 1 -19z"/>
<path d="M1340 5813 c0 -4 21 -8 48 -7 148 2 290 -90 364 -236 31 -61 33 -71
32 -165 0 -92 -2 -105 -32 -166 -39 -81 -110 -154 -185 -192 -70 -35 -95 -41
-182 -41 -363 -3 -538 452 -267 696 50 45 90 67 162 90 49 16 51 18 16 13 -99
-11 -236 -118 -282 -220 -73 -160 -44 -340 75 -464 129 -134 312 -167 478 -86
251 123 310 443 119 652 -45 50 -138 106 -194 119 -49 10 -152 15 -152 7z"/>
<path d="M7313 5804 c-203 -53 -326 -227 -310 -437 15 -196 175 -356 372 -374
79 -7 87 1 10 10 -76 9 -94 14 -154 44 -120 61 -207 188 -218 320 -24 285 244
503 517 421 118 -35 242 -157 267 -262 16 -70 19 -98 15 -152 -11 -153 -114
-290 -260 -347 -26 -10 -59 -19 -74 -19 -16 -1 -28 -5 -28 -9 0 -18 106 12
168 48 228 130 276 444 98 636 -101 110 -263 158 -403 121z"/>
<path d="M1300 5691 c-84 -27 -151 -88 -187 -169 -35 -79 -30 -183 12 -261 70
-127 226 -185 367 -135 61 22 139 94 163 150 21 50 35 124 24 124 -5 0 -9 -14
-9 -31 0 -77 -81 -186 -167 -225 -186 -85 -403 55 -403 261 0 106 67 212 165
260 61 30 184 28 248 -5 84 -42 157 -146 157 -221 0 -16 4 -29 9 -29 26 0 -18
130 -63 184 -53 65 -125 99 -216 103 -41 1 -86 -1 -100 -6z"/>
<path d="M7312 5687 c-50 -17 -124 -78 -154 -127 -29 -47 -52 -130 -37 -130 5
0 9 11 9 25 0 26 26 89 50 119 64 80 130 111 235 111 70 0 87 -4 134 -30 102
-56 158 -159 147 -274 -18 -202 -235 -324 -410 -232 -31 17 -68 43 -82 58 -34
37 -75 125 -76 163 -1 16 -5 30 -9 30 -14 0 8 -93 33 -139 97 -175 338 -207
474 -63 140 148 97 389 -85 474 -53 25 -176 33 -229 15z"/>
<path d="M7961 5662 c-87 -44 -103 -150 -33 -214 30 -28 62 -42 62 -28 0 6 -6
10 -12 10 -20 1 -54 33 -70 66 -19 36 -16 72 7 111 64 108 225 61 225 -67 0
-59 -33 -96 -104 -117 -36 -10 -37 -11 -13 -12 62 -2 113 43 126 112 7 38 5
52 -13 84 -23 40 -74 73 -116 73 -14 0 -40 -8 -59 -18z"/>
<path d="M8490 5673 c-23 -9 -60 -45 -76 -75 -30 -58 -4 -137 57 -170 119 -64
245 62 181 181 -29 55 -105 85 -162 64z m101 -18 c37 -20 69 -70 69 -110 0
-63 -63 -125 -127 -125 -59 0 -123 66 -123 127 0 33 36 86 71 105 41 22 71 23
110 3z"/>
<path d="M1317 5606 c-84 -30 -133 -93 -144 -185 -4 -38 0 -58 22 -104 32 -70
75 -104 147 -119 189 -40 327 169 217 328 -35 52 -159 119 -159 86 0 -4 9 -8
20 -9 36 -3 90 -35 121 -72 124 -151 -20 -372 -210 -321 -104 28 -172 153
-138 255 23 69 89 126 162 139 15 3 30 8 33 11 10 10 -33 4 -71 -9z"/>
<path d="M7380 5612 c0 -4 14 -7 30 -7 17 -1 30 3 30 7 0 4 -13 8 -30 8 -16 0
-30 -3 -30 -8z"/>
<path d="M7450 5612 c0 -5 15 -14 34 -20 51 -19 103 -71 118 -119 7 -24 16
-43 20 -43 17 0 -27 93 -58 123 -34 32 -114 73 -114 59z"/>
<path d="M7315 5594 c-97 -50 -142 -171 -100 -272 33 -77 132 -140 203 -129
23 3 21 4 -8 6 -88 4 -183 86 -196 167 -15 103 26 179 121 224 22 11 33 20 25
20 -8 0 -28 -7 -45 -16z"/>
<path d="M7612 5383 c-5 -72 -70 -152 -135 -168 -15 -4 -27 -11 -27 -16 0 -10
65 14 89 34 35 28 53 51 66 80 17 41 27 107 17 107 -4 0 -9 -17 -10 -37z"/>
<path d="M8213 5404 c-44 -22 -78 -89 -69 -136 14 -74 80 -125 149 -114 71 12
116 62 117 129 1 103 -103 167 -197 121z m128 -17 c45 -30 61 -63 56 -115 -10
-98 -125 -144 -198 -79 -33 29 -53 80 -45 113 23 90 114 130 187 81z"/>
<path d="M5 5134 c2 -104 7 -430 10 -724 7 -665 13 -953 21 -1005 50 -357 276
-614 616 -699 34 -8 92 -20 128 -25 82 -12 688 -12 696 0 3 5 -11 9 -30 9 -30
0 -36 4 -36 20 0 29 -23 72 -93 170 -34 47 -87 122 -119 168 -32 46 -63 88
-68 95 -12 14 -271 381 -401 567 -89 129 -131 212 -145 290 -4 25 -9 48 -10
53 -1 4 -2 55 -3 114 0 58 -4 103 -8 100 -8 -9 -7 -148 1 -213 22 -165 35
-186 565 -929 237 -333 261 -370 267 -406 l6 -34 -199 1 c-394 3 -462 9 -600
54 -321 103 -514 346 -557 700 -3 25 -8 254 -11 510 -4 256 -8 570 -10 698
l-3 233 217 -3 c190 -3 220 -5 247 -22 58 -35 68 -66 68 -208 0 -71 3 -128 6
-128 4 0 6 57 5 128 -1 132 -11 168 -51 203 -40 33 -72 37 -280 39 -114 0
-209 2 -210 3 -1 1 -5 96 -8 211 -3 114 -7 211 -10 214 -3 2 -4 -80 -1 -184z"/>
<path d="M872 4880 c-38 -24 -78 -100 -52 -100 6 0 10 10 10 21 0 12 16 37 35
55 l35 33 375 1 c409 0 415 0 452 -57 16 -24 18 -63 19 -397 1 -353 0 -373
-19 -408 -13 -23 -34 -43 -56 -53 -33 -15 -34 -15 -6 -10 38 8 64 31 80 70 8
22 11 136 11 406 -1 417 0 410 -69 443 -31 14 -82 16 -409 16 -356 0 -374 -1
-406 -20z"/>
<path d="M7112 4884 c-63 -32 -63 -34 -62 -460 0 -249 4 -393 11 -405 6 -11
25 -29 42 -39 30 -19 53 -20 418 -20 377 0 387 1 413 21 56 44 56 47 56 444 0
390 -2 407 -50 450 -21 19 -38 20 -409 23 -342 2 -390 0 -419 -14z m803 -9
c60 -29 60 -30 60 -449 0 -365 -1 -382 -20 -408 -11 -15 -31 -32 -45 -38 -18
-7 -150 -10 -409 -8 l-383 3 -29 33 -29 32 0 386 c0 420 0 417 59 449 40 22
749 22 796 0z"/>
<path d="M819 4768 c-6 -13 -5 -69 1 -73 4 -3 7 13 6 35 -1 35 -3 47 -7 38z"/>
<path d="M815 4631 c0 -27 3 -52 6 -55 3 -3 5 19 5 49 0 30 -3 55 -6 55 -3 0
-6 -22 -5 -49z"/>
<path d="M814 4302 c1 -229 3 -261 19 -285 37 -57 32 -56 426 -57 200 -1 366
2 369 5 3 3 -158 5 -357 5 -321 0 -366 2 -391 17 -52 30 -55 44 -55 319 0 140
-3 254 -6 254 -3 0 -5 -116 -5 -258z"/>
<path d="M553 4485 c4 -36 13 -39 12 -5 0 17 -3 30 -8 30 -4 0 -6 -11 -4 -25z"/>
<path d="M559 4438 c-5 -17 -2 -91 3 -94 5 -3 8 18 8 45 0 28 -2 51 -5 51 -3
0 -5 -1 -6 -2z"/>
<path d="M555 4310 c2 -31 15 -37 15 -7 0 15 -4 27 -8 27 -5 0 -8 -9 -7 -20z"/>
<path d="M7117 3777 c-40 -15 -67 -48 -67 -84 0 -86 39 -103 234 -103 80 0
156 4 170 10 71 27 89 99 37 151 -16 16 -35 30 -43 30 -61 6 -313 3 -331 -4z
m329 -6 c6 0 23 -13 38 -27 29 -30 34 -69 11 -100 -27 -39 -63 -46 -230 -42
l-157 3 -24 28 c-41 48 -30 99 29 130 19 10 262 16 333 8z"/>
<path d="M1350 3773 c-44 -17 -69 -78 -50 -122 22 -54 60 -63 245 -59 157 3
164 4 189 27 14 14 26 29 26 35 0 6 -6 4 -13 -4 -35 -45 -55 -50 -215 -50
-161 0 -200 9 -221 49 -15 28 -4 73 25 99 24 21 33 22 194 22 161 0 170 -1
195 -23 16 -13 28 -34 28 -50 1 -15 5 -27 9 -27 18 0 1 56 -25 82 l-29 28
-171 -1 c-95 0 -179 -3 -187 -6z"/>
<path d="M1302 3419 c-19 -7 -21 -12 -13 -27 8 -14 21 -19 53 -18 36 1 43 5
46 24 2 16 -2 22 -15 23 -10 0 -25 2 -33 3 -8 2 -25 0 -38 -5z m77 -15 c9 -9
-10 -17 -43 -19 -36 -1 -59 21 -28 28 18 4 64 -1 71 -9z"/>
<path d="M1424 3413 c-22 -23 -1 -40 46 -38 45 2 63 14 51 33 -12 19 -79 23
-97 5z m82 -6 c12 -12 -7 -24 -33 -21 -15 1 -34 2 -42 3 -10 1 -11 4 -2 15 11
13 65 15 77 3z"/>
<path d="M1568 3423 c-20 -5 -31 -30 -16 -39 19 -12 88 -12 97 0 23 27 -27 51
-81 39z m70 -24 c2 -12 -6 -15 -32 -14 -39 1 -57 12 -38 24 21 13 67 6 70 -10z"/>
<path d="M1686 3414 c-24 -24 -4 -41 45 -39 39 2 66 22 51 37 -4 4 -24 10 -44
13 -26 4 -40 1 -52 -11z m77 -3 c5 -1 7 -6 5 -13 -6 -16 -78 -18 -78 -3 0 21
10 24 73 16z"/>
<path d="M7047 3422 c-12 -2 -17 -11 -15 -25 2 -18 10 -22 43 -22 53 -1 65 4
65 26 0 10 -6 19 -12 20 -7 1 -24 2 -38 3 -14 1 -33 0 -43 -2z m79 -15 c13
-13 -8 -24 -41 -22 -41 3 -55 12 -36 24 14 9 68 7 77 -2z"/>
<path d="M7173 3423 c-7 -3 -13 -13 -13 -24 0 -10 6 -19 13 -20 6 0 26 -2 44
-4 35 -4 64 18 46 36 -11 11 -71 19 -90 12z m85 -18 c11 -11 -19 -22 -49 -20
-34 3 -44 9 -35 23 6 10 74 7 84 -3z"/>
<path d="M7295 3422 c-9 -9 -5 -42 5 -43 73 -9 100 -3 100 22 0 10 -6 19 -12
20 -52 4 -89 5 -93 1z m88 -11 c5 -1 7 -6 5 -13 -5 -14 -76 -19 -85 -5 -12 19
18 25 80 18z"/>
<path d="M7432 3422 c-16 -5 -15 -42 1 -43 6 -1 26 -2 42 -4 17 -1 36 0 43 2
13 5 17 42 5 44 -27 4 -81 5 -91 1z m83 -22 c0 -11 -10 -14 -39 -12 -43 2 -51
6 -43 20 10 15 82 8 82 -8z"/>
<path d="M1364 3323 c-26 -27 -10 -43 43 -43 32 0 22 14 -10 15 -42 0 -32 20
11 23 41 3 43 2 37 -19 -5 -14 -4 -19 4 -15 18 11 13 46 -6 47 -10 0 -29 2
-41 3 -13 2 -30 -4 -38 -11z"/>
<path d="M1525 3332 c-69 -8 -51 -55 19 -50 33 2 42 7 44 24 3 24 -15 31 -63
26z m53 -24 c-5 -13 -53 -21 -76 -13 -25 9 0 25 39 25 28 0 39 -4 37 -12z"/>
<path d="M1626 3332 c-11 -3 -16 -11 -14 -25 3 -20 10 -22 73 -25 38 -2 66 0
62 4 -4 4 -33 8 -64 8 -35 1 -58 6 -60 14 -4 9 15 12 72 12 73 0 77 -1 72 -21
-4 -16 -3 -18 8 -9 18 15 8 40 -16 41 -67 3 -118 4 -133 1z"/>
<path d="M7053 3332 c-27 -4 -31 -37 -7 -46 25 -10 66 -7 59 4 -4 6 -11 8 -16
5 -12 -8 -49 4 -49 16 0 5 34 9 76 9 73 0 76 -1 71 -22 -6 -20 -5 -20 11 -5
11 12 13 20 6 27 -11 11 -108 18 -151 12z"/>
<path d="M7263 3332 c-44 -3 -54 -17 -31 -40 22 -22 98 -12 98 13 0 21 -23 30
-67 27z m55 -24 c-8 -22 -88 -19 -88 3 0 5 21 9 46 9 32 0 44 -4 42 -12z"/>
<path d="M7363 3325 c-10 -7 -14 -19 -10 -29 7 -17 37 -23 37 -6 0 6 -5 9 -11
8 -6 -2 -14 3 -16 10 -3 8 9 12 42 12 33 0 45 -4 42 -12 -2 -7 -11 -13 -20
-13 -8 0 -19 -4 -23 -8 -10 -10 28 -9 45 2 16 10 8 41 -11 42 -7 0 -23 2 -36
3 -12 2 -30 -3 -39 -9z"/>
<path d="M7124 3288 c-3 -4 6 -8 20 -8 14 0 26 4 26 8 0 4 -9 8 -21 8 -11 0
-23 -4 -25 -8z"/>
<path d="M1424 3225 c-10 -25 9 -37 57 -33 36 2 44 7 44 23 0 17 -8 20 -48 23
-36 2 -49 -1 -53 -13z m94 -7 c-5 -14 -51 -23 -74 -14 -27 10 -4 26 37 26 28
0 39 -4 37 -12z"/>
<path d="M1554 3225 c-10 -25 9 -37 57 -33 36 2 44 7 44 23 0 17 -8 20 -48 23
-36 2 -49 -1 -53 -13z m91 -10 c0 -12 -50 -19 -71 -11 -9 3 -12 11 -9 16 8 14
80 9 80 -5z"/>
<path d="M1677 3226 c-9 -22 14 -36 59 -36 41 0 56 12 47 38 -7 17 -99 16
-106 -2z m98 -11 c0 -11 -59 -19 -82 -11 -8 3 -11 11 -8 16 8 14 90 9 90 -5z"/>
<path d="M7032 3218 c2 -19 10 -23 43 -26 47 -3 70 9 62 32 -5 12 -20 16 -57
16 -48 0 -51 -2 -48 -22z m91 -3 c-4 -15 -76 -12 -81 3 -3 10 7 12 39 10 24
-2 43 -7 42 -13z"/>
<path d="M7153 3224 c-8 -21 14 -34 58 -34 39 0 60 15 52 36 -8 21 -102 19
-110 -2z m95 -6 c-4 -12 -65 -20 -81 -11 -17 10 7 23 44 23 28 0 39 -4 37 -12z"/>
<path d="M7287 3227 c-10 -26 9 -38 54 -35 37 2 45 7 47 26 3 20 0 22 -46 22
-33 0 -52 -5 -55 -13z m93 -10 c0 -8 -15 -14 -40 -15 -30 -2 -40 1 -40 13 0
11 11 15 40 15 26 0 40 -4 40 -13z"/>
</g>
</svg>
