<?xml version="1.0" encoding="utf-8"?>
<!-- Generator: Adobe Illustrator 27.3.1, SVG Export Plug-In . SVG Version: 6.00 Build 0)  -->
<svg version="1.1" id="Layer_1" xmlns="http://www.w3.org/2000/svg" xmlns:xlink="http://www.w3.org/1999/xlink" x="0px" y="0px"
	 width="5px" height="5px" viewBox="0 0 5 5" style="enable-background:new 0 0 5 5;" xml:space="preserve">
<style type="text/css">
	.st0{fill:#231F20;}
	.st1{font-family:'MotivaSans-Regular';}
	.st2{font-size:0.7878px;}
</style>
<g>
	<g>
		<path class="st0" d="M2.2,3.6V3.2c0.4,0,0.7-0.3,0.7-0.7S2.6,1.8,2.2,1.8V1.4c0.6,0,1.1,0.5,1.1,1.1C3.3,3.1,2.8,3.6,2.2,3.6z"/>
		<circle class="st0" cx="2.2" cy="2.5" r="0.6"/>
	</g>
	<path class="st0" d="M3.2,1.7L3.2,1.7L3.2,1.7L3.2,1.7L3.2,1.7L3.2,1.7L3.2,1.7L3.2,1.7L3.2,1.7z"/>
	<path class="st0" d="M3.4,1.7v0.1h0L3.4,1.7l0,0.1h0L3.4,1.7L3.3,1.8h0V1.7H3.4L3.4,1.7L3.4,1.7L3.4,1.7z"/>
</g>
<g>
	<g>
		<path class="st0" d="M0.5,4.1C0.5,4.1,0.5,4.1,0.5,4.1L0.5,4.1C0.5,4.2,0.5,4.2,0.5,4.1C0.5,4.2,0.4,4.2,0.5,4.1
			c-0.1,0-0.1,0-0.2,0.1c0,0,0,0,0,0.1c0,0,0,0,0,0c0,0,0,0,0,0c0,0,0,0,0.1,0c0,0,0.1,0,0.1,0c0,0,0,0,0,0c0,0,0,0,0,0.1
			c0,0,0,0.1,0,0.1c0,0,0,0-0.1,0c0,0-0.1,0-0.1,0c0,0-0.1,0-0.1,0c0,0-0.1,0-0.1,0l0-0.1c0,0,0,0,0.1,0c0,0,0,0,0.1,0
			c0,0,0.1,0,0.1,0c0,0,0,0,0-0.1c0,0,0,0,0,0c0,0,0,0,0,0c0,0,0,0-0.1,0c0,0-0.1,0-0.1,0c0,0,0,0,0,0c0,0,0,0,0-0.1c0,0,0,0,0-0.1
			s0,0,0.1,0C0.4,4.1,0.4,4.1,0.5,4.1C0.4,4.1,0.5,4.1,0.5,4.1z"/>
		<path class="st0" d="M0.8,4.2H0.6V4.1H1v0.1H0.8l0.1,0.4H0.8V4.2z"/>
		<path class="st0" d="M1.4,4.2H1.1v0.1h0.2v0.1H1.1v0.2h0.2v0.1H1.1V4.1L1.4,4.2L1.4,4.2z"/>
		<path class="st0" d="M1.7,4.5H1.5l0,0.1H1.4l0.2-0.5h0.1l0.2,0.5H1.8L1.7,4.5z M1.7,4.4L1.6,4.2L1.6,4.4H1.7z"/>
		<path class="st0" d="M2.4,4.1v0.5H2.3V4.2L2.2,4.6h0L2,4.2v0.3H1.9V4.1H2l0.2,0.4L2.4,4.1L2.4,4.1z"/>
		<path class="st0" d="M3,4.2C3,4.2,3.1,4.2,3,4.2c0.1,0.1,0.1,0.2,0.1,0.2c0,0,0,0.1,0,0.1c0,0-0.1,0.1-0.1,0.1c0,0-0.1,0-0.1,0
			H2.7V4.1h0.2C2.9,4.1,3,4.1,3,4.2z M2.8,4.2v0.2h0C3,4.5,3,4.4,3,4.4c0,0,0-0.1,0-0.1C2.9,4.3,2.9,4.2,2.8,4.2L2.8,4.2z"/>
		<path class="st0" d="M3.5,4.2H3.3v0.1L3.5,4.2l0,0.2H3.3v0.1h0.2v0.1H3.2V4.1h0.3V4.2z"/>
		<path class="st0" d="M3.9,4.1C4,4.1,4,4.1,3.9,4.1l0,0.1c0,0,0,0,0,0c0,0,0,0,0,0c0,0-0.1,0-0.1,0c0,0,0,0.1,0,0.1
			c0,0,0,0.1,0,0.1c0,0,0,0,0.1,0c0,0,0.1,0,0.1,0L4,4.5c0,0,0,0-0.1,0c0,0-0.1,0-0.1,0c0,0-0.1,0-0.1,0c0,0-0.1,0-0.1-0.1
			c0,0,0-0.1,0-0.1c0,0,0-0.1,0-0.1c0,0,0-0.1,0.1-0.1C3.7,4.1,3.8,4.1,3.9,4.1C3.9,4.1,3.9,4.1,3.9,4.1z"/>
		<path class="st0" d="M4.3,4.6L4.2,4.4l0,0v0.1H4.1V4.1h0.1v0.2l0.1-0.2h0.2L4.3,4.3l0.2,0.3H4.3z"/>
	</g>
	<g>
		<path class="st0" d="M4.6,4.1L4.6,4.1L4.6,4.1L4.6,4.1L4.6,4.1L4.6,4.1L4.6,4.1L4.6,4.1L4.6,4.1z"/>
		<path class="st0" d="M4.8,4.1L4.8,4.1L4.8,4.1L4.8,4.1L4.8,4.1L4.8,4.1L4.8,4.1L4.8,4.1L4.7,4.2V4.1H4.8L4.8,4.1L4.8,4.1L4.8,4.1z
			"/>
	</g>
</g>
<text transform="matrix(1 0 0 1 0.4431 0.9782)" class="st1 st2">O GUIA DO</text>
</svg>
